<?xml version="1.0" encoding="utf-8"?>
<!-- Generator: Adobe Illustrator 15.0.0, SVG Export Plug-In . SVG Version: 6.00 Build 0)  -->
<!DOCTYPE svg PUBLIC "-//W3C//DTD SVG 1.1//EN" "http://www.w3.org/Graphics/SVG/1.1/DTD/svg11.dtd">
<svg version="1.1" id="Layer_1" xmlns="http://www.w3.org/2000/svg" xmlns:xlink="http://www.w3.org/1999/xlink" x="0px" y="0px"
	 width="2500px" height="2500px" viewBox="0 0 2500 2500" enable-background="new 0 0 2500 2500" xml:space="preserve">
<path fill="darkgray" d="M1251.04,13.5C562.645,13.5,4.599,568.547,4.599,1253.242c0,684.693,558.045,1239.741,1246.441,1239.741
	c688.395,0,1246.444-555.048,1246.444-1239.741C2497.478,568.547,1939.423,13.5,1251.04,13.5z M918.487,1852.601H644.819V973.207
	h273.668V1852.601z M780.349,858.043c-89.378,0-161.833-72.654-161.833-162.263c0-89.619,72.465-162.269,161.833-162.269
	c89.367,0,161.823,72.65,161.823,162.269C942.177,785.394,869.721,858.043,780.349,858.043z M1944.059,1852.601h-272.341v-461.608
	c0-126.606-48.351-197.279-149.002-197.279c-109.543,0-166.771,73.605-166.771,197.279v461.608h-262.479V973.207h262.479v118.439
	c0,0,78.954-145.263,266.431-145.263c187.479,0,321.688,113.859,321.688,349.398L1944.059,1852.601L1944.059,1852.601z"/>
</svg>
