<?xml version="1.0" encoding="utf-8"?>
<!-- Generator: Adobe Illustrator 15.0.0, SVG Export Plug-In . SVG Version: 6.00 Build 0)  -->
<!DOCTYPE svg PUBLIC "-//W3C//DTD SVG 1.1//EN" "http://www.w3.org/Graphics/SVG/1.1/DTD/svg11.dtd">
<svg version="1.1" id="Flat" xmlns="http://www.w3.org/2000/svg" xmlns:xlink="http://www.w3.org/1999/xlink" x="0px" y="0px"
	 width="800px" height="800px" viewBox="0 0 800 800" enable-background="new 0 0 800 800" xml:space="preserve">
<path fill="darkgray" d="M400,251.05c-82.263,0-148.95,66.688-148.95,148.95c0,82.287,66.688,148.975,148.95,148.975
	c82.287,0,148.975-66.688,148.975-148.975C548.842,317.773,482.251,251.136,400,251.05z M400,521.875
	c-67.308,0-121.875-54.567-121.875-121.875S332.692,278.125,400,278.125S521.875,332.692,521.875,400l0,0
	C521.805,467.279,467.279,521.805,400,521.875z M548.975,75H251.05C153.851,75.102,75.102,153.851,75,251.05v297.925
	C75.102,646.149,153.851,724.898,251.05,725h297.925c97.175-0.102,175.924-78.851,176.025-176.025V251.05
	C724.898,153.851,646.149,75.102,548.975,75z M697.9,548.975c-0.086,82.202-66.724,148.84-148.926,148.926H251.05
	c-82.227-0.086-148.864-66.724-148.975-148.926V251.05c0.11-82.227,66.748-148.864,148.975-148.975h297.925
	c82.202,0.11,148.84,66.748,148.926,148.975V548.975z M603.125,223.95c0,14.955-12.121,27.1-27.1,27.1
	c-14.93,0-27.051-12.145-27.051-27.1s12.121-27.075,27.051-27.075C590.998,196.891,603.109,209.002,603.125,223.95z"/>
</svg>
